<svg width="16" height="17" viewBox="0 0 16 17" fill="none" xmlns="http://www.w3.org/2000/svg">
<path d="M6.06001 6.50016C6.21675 6.05461 6.52611 5.6789 6.93331 5.43958C7.34052 5.20027 7.81927 5.11279 8.28479 5.19264C8.75032 5.27249 9.17255 5.51451 9.47673 5.87585C9.7809 6.23718 9.94738 6.69451 9.94668 7.16683C9.94668 8.50016 7.94668 9.16683 7.94668 9.16683M8.00001 11.8335H8.00668M14.6667 8.50016C14.6667 12.1821 11.6819 15.1668 8.00001 15.1668C4.31811 15.1668 1.33334 12.1821 1.33334 8.50016C1.33334 4.81826 4.31811 1.8335 8.00001 1.8335C11.6819 1.8335 14.6667 4.81826 14.6667 8.50016Z" stroke="white" stroke-width="1.33333" stroke-linecap="round" stroke-linejoin="round"/>
</svg>
