<svg width="20" height="20" viewBox="0 0 20 20" fill="none" xmlns="http://www.w3.org/2000/svg">
<g clip-path="url(#clip0_548_1627)">
<path d="M7.49999 7.49996H7.50832M12.5 12.5H12.5083M13.3333 6.66663L6.66666 13.3333M7.91666 7.49996C7.91666 7.73008 7.73011 7.91663 7.49999 7.91663C7.26987 7.91663 7.08332 7.73008 7.08332 7.49996C7.08332 7.26984 7.26987 7.08329 7.49999 7.08329C7.73011 7.08329 7.91666 7.26984 7.91666 7.49996ZM12.9167 12.5C12.9167 12.7301 12.7301 12.9166 12.5 12.9166C12.2699 12.9166 12.0833 12.7301 12.0833 12.5C12.0833 12.2698 12.2699 12.0833 12.5 12.0833C12.7301 12.0833 12.9167 12.2698 12.9167 12.5ZM18.3333 9.99996C18.3333 14.6023 14.6024 18.3333 9.99999 18.3333C5.39762 18.3333 1.66666 14.6023 1.66666 9.99996C1.66666 5.39759 5.39762 1.66663 9.99999 1.66663C14.6024 1.66663 18.3333 5.39759 18.3333 9.99996Z" stroke="#344054" stroke-width="1.66667" stroke-linecap="round" stroke-linejoin="round"/>
</g>
<defs>
<clipPath id="clip0_548_1627">
<rect width="20" height="20" fill="white"/>
</clipPath>
</defs>
</svg>
