<svg width="16" height="17" viewBox="0 0 16 17" fill="none" xmlns="http://www.w3.org/2000/svg">
<path d="M14.6667 14.5V13.1667C14.6667 11.9241 13.8168 10.88 12.6667 10.584M10.3333 2.69384C11.3106 3.08943 12 4.04754 12 5.16667C12 6.28579 11.3106 7.2439 10.3333 7.63949M11.3333 14.5C11.3333 13.2575 11.3333 12.6362 11.1304 12.1462C10.8597 11.4928 10.3406 10.9736 9.68717 10.703C9.19711 10.5 8.57585 10.5 7.33334 10.5H5.33334C4.09083 10.5 3.46958 10.5 2.97952 10.703C2.32611 10.9736 1.80698 11.4928 1.53633 12.1462C1.33334 12.6362 1.33334 13.2575 1.33334 14.5M9.00001 5.16667C9.00001 6.63943 7.8061 7.83333 6.33334 7.83333C4.86058 7.83333 3.66668 6.63943 3.66668 5.16667C3.66668 3.69391 4.86058 2.5 6.33334 2.5C7.8061 2.5 9.00001 3.69391 9.00001 5.16667Z" stroke="white" stroke-width="1.33333" stroke-linecap="round" stroke-linejoin="round"/>
</svg>
